<svg xmlns="http://www.w3.org/2000/svg" viewBox="0 0 760 655" role="img" aria-labelledby="title desc">
  <title id="title">Railway network illustration</title>
  <desc id="desc">A stylized Indian railway route map with stations and connecting tracks.</desc>
  <defs>
    <linearGradient id="sky" x1="0" x2="1" y1="0" y2="1">
      <stop offset="0" stop-color="#f9fbfd"/>
      <stop offset="1" stop-color="#e8f2ef"/>
    </linearGradient>
    <filter id="soft" x="-20%" y="-20%" width="140%" height="140%">
      <feDropShadow dx="0" dy="12" stdDeviation="12" flood-color="#233143" flood-opacity=".12"/>
    </filter>
  </defs>
  <rect width="760" height="655" rx="26" fill="url(#sky)"/>
  <path d="M45 534c72-41 139-67 202-78 80-13 148 5 218-11 88-21 139-82 245-94" fill="none" stroke="#d5dde6" stroke-width="44" stroke-linecap="round"/>
  <path d="M45 534c72-41 139-67 202-78 80-13 148 5 218-11 88-21 139-82 245-94" fill="none" stroke="#26374d" stroke-width="9" stroke-linecap="round"/>
  <path d="M72 489 210 314c45-57 102-91 171-102l250-41" fill="none" stroke="#cfd8e3" stroke-width="36" stroke-linecap="round"/>
  <path d="M72 489 210 314c45-57 102-91 171-102l250-41" fill="none" stroke="#c5372f" stroke-width="8" stroke-linecap="round"/>
  <path d="M185 568 307 376c35-55 77-86 128-94l214-33" fill="none" stroke="#dfe6ed" stroke-width="34" stroke-linecap="round"/>
  <path d="M185 568 307 376c35-55 77-86 128-94l214-33" fill="none" stroke="#1f8f5f" stroke-width="8" stroke-linecap="round"/>
  <g fill="#fff" stroke="#26374d" stroke-width="7" filter="url(#soft)">
    <circle cx="72" cy="489" r="17"/>
    <circle cx="210" cy="314" r="17"/>
    <circle cx="381" cy="212" r="17"/>
    <circle cx="631" cy="171" r="17"/>
    <circle cx="185" cy="568" r="17"/>
    <circle cx="307" cy="376" r="17"/>
    <circle cx="465" cy="445" r="17"/>
    <circle cx="710" cy="351" r="17"/>
  </g>
  <g fill="#26374d" font-family="Arial, sans-serif" font-size="24" font-weight="700">
    <text x="88" y="482">BZA</text>
    <text x="224" y="305">SC</text>
    <text x="397" y="204">MAS</text>
    <text x="641" y="164">NDLS</text>
    <text x="197" y="603">HYB</text>
    <text x="323" y="405">RJY</text>
    <text x="482" y="476">VSKP</text>
  </g>
  <g transform="translate(302 515)" filter="url(#soft)">
    <rect x="0" y="0" width="175" height="54" rx="9" fill="#c5372f"/>
    <rect x="18" y="13" width="34" height="20" rx="3" fill="#fff"/>
    <rect x="63" y="13" width="34" height="20" rx="3" fill="#fff"/>
    <rect x="108" y="13" width="34" height="20" rx="3" fill="#fff"/>
    <circle cx="42" cy="58" r="11" fill="#26374d"/>
    <circle cx="132" cy="58" r="11" fill="#26374d"/>
    <path d="M154 17h19l-19 20z" fill="#f5c04f"/>
  </g>
</svg>
